<svg xmlns="http://www.w3.org/2000/svg" viewBox="0 0 456.981 52.546" width="456.981" height="52.546"><defs><style>.a{fill:#009e41;}.b{fill:#231815;}</style></defs><title>logo_js</title><rect class="a" x="13.615" y="0.192" width="23.008" height="0.918"/><path class="a" d="M20.357.75,20.389,41.7c-.133,9.762-8.18,9.438-8.18,9.438-6.5-.906-6.07-4.012-6.07-4.012-.375-2.164,3.914-4.406,3.914-4.406,4.7-3.555.929-7.9.929-7.9-4.812-4.692-9.125.449-9.125.449-3.937,4.152-.39,10.6-.39,10.6,4.156,6.3,11.843,6.453,11.843,6.453C25.725,52.032,29,43.727,29,43.727A14.427,14.427,0,0,0,30.482,37.9V1.063Z"/><path class="a" d="M36.826,29.125V52.469h1.086c.75-3.227,3.07-3.531,3.07-3.531a12.285,12.285,0,0,1,5.516,1.7c11.82,5.672,18.883-3.074,18.883-3.074,7.2-8.449,3.539-17.039,3.539-17.039-3-7.582-12.516-9.508-12.516-9.508C42.107,17.344,43.115,9.8,43.115,9.8A8.149,8.149,0,0,1,48.631,1.36,10.926,10.926,0,0,1,59.678,5.2a24.18,24.18,0,0,1,4.789,13.5h1.2V.75h-1.2c-1.094,2.789-2.461,2.293-2.461,2.293-1.11.129-4.977-1.808-4.977-1.808-6.969-2.664-11.156-.188-11.156-.188C37.2,5.407,37.3,13.176,37.3,13.176c-.516,9.762,4.125,13.043,4.125,13.043,2.789,2.906,11.531,5.066,11.531,5.066,7.063,2.3,9.352,6.6,9.352,6.6,1.57,3.2.6,7.211.6,7.211-.9,3.523-4.75,5.535-4.75,5.535-4.758,1.535-7.812,0-7.812,0a18.635,18.635,0,0,1-7.992-7.062c-3.063-5.684-4.29-14.446-4.29-14.446Z"/><path class="b" d="M145.912,4.758l4.688.731c.625.125.929.312.929.578a.711.711,0,0,1-.562.761l-1.1.387.18,7.027,12.273-.183L164.764,11l4.125,3.262-.289,1.289H150.678c4.1,8.059,9.976,15,19.195,19.723l-.164.586a6.75,6.75,0,0,0-3.313,3c-6.859-4.992-12.492-10.246-16.617-19.465l.133,16.266h4.07l2.243-2.68,3.914,2.883v1.136H149.912V47.356l-3.789.57V36.992H135.459l-.774-1.339h11.438l-.25-14.621c-6.055,10.089-9.8,14.359-19.039,19.042l-.57-.964c7.109-5.375,14.3-14.016,17.14-23.106l-15.64.082-.688-1.715,18.8-.058Z"/><path class="b" d="M233.957,43.653h20.079V31.117H233.957m20.86-9.25-.149,1.172-21.007-.082-.157-.828L248.239,22l2.625-2.75Zm3.851,8.122c.805.621.805,1.128,0,1.5l-.75.187v14.6l-3.8.554V44.957H233.926V47.2l-4.389.563V28.117l5.186,1.692H253.9l1.148-2.063ZM246.4,5.668c.906.375.984.813.211,1.3l-.977.191c5.531,6.735,11.406,10.25,19.852,13.25l-.375.735a14.337,14.337,0,0,0-2.461,2.879c-8.047-3.739-13.867-8.4-17.969-16.133l-.563.207c-2.75,8.473-13.444,13.535-21.482,18.16l-.586-.754a68.524,68.524,0,0,0,19-20.578Z"/><path class="b" d="M328.7,17.4a54.271,54.271,0,0,1-8.688,11.882l-.547-.558a63.965,63.965,0,0,0,8.758-22.153l4.695.993c1.008.773,1.282,1.66.821,2.168l-1.914.765c-1.485,1.985-1.149,3.758-2.633,5.559h9.437l.063-10.809,3.992-.058c1.4.125,2.617.726,1.219,1.629l-1.5.609.218,8.609,9.274.02,2.484-3.074,3.9,3.464V17.4h-15.75V28.727h7.992l2.523-3.067,4.016,3.442v.422H342.528V43.305h12.625l2.5-2.891,4,3.469v.758H321.809l-.766-1.336h17.586V29.524H325.817l-.766-.8h13.578V17.4Z"/><path class="b" d="M383.231,43.68h16.656V31.09H383.231Zm9.953-23.832h7.492l2.305-3.77,4.1,4.079v.773h-13.9v9.348H400l1.368-2.032,2.906,2.032c.766.64,1.031,1.433.258,1.816l-.758,1V46.336l-3.883.313V44.223H383.231v2.426l-4.164.84V27.969l3.8,2.309h6.149V20.93h-11.2l-.766-1.082H389.02V12.086c-4.2.52-7.734.3-10.547.414v-.484A105.806,105.806,0,0,0,400.121,5.2L404.286,8.5c.648.781.507,1.231-.36,1.36l-1.547-.817c-3.453.762-6.523,2.231-9.195,2.742Zm-18.43-10.66a2.953,2.953,0,0,1,.961,2.1c0,1.293-.523,1.942-1.531,1.942-.656,0-1.344-.649-2.133-1.942a9.8,9.8,0,0,0-3.64-3.64l.382-.77c2.813.391,4.821,1.153,5.961,2.309m-4.781,10.633a3.376,3.376,0,0,1,1.148,2.3c0,1.411-.6,2.133-1.765,2.133-.727,0-1.336-.578-1.688-1.73a15.239,15.239,0,0,0-3.086-5.008l.586-.582a13.607,13.607,0,0,1,4.805,2.887m6.836-4.461-4.164,16.8a20.318,20.318,0,0,0-.766,5.2c0,.761.883,1.941,1.125,3.363a18.656,18.656,0,0,1,.258,4.133c0,2.062-.336,2.609-1.742,2.351-1.469-.269-2.586-.793-2.633-2.14a16.816,16.816,0,0,1-.094-4.051,7.111,7.111,0,0,0,0-2.445,2.88,2.88,0,0,0-.773-2.051c-.766-.774-.672-.879-2.469-.879V34.282h3.156l6.727-17.161Z"/><path class="b" d="M182.232,31.367l-4.023-.765a72.329,72.329,0,0,1-2.484,13.418l.757.383c2.313-4.469,4.11-6.957,4.875-10.153l.961-.2C183.217,33.672,183,31.864,182.232,31.367Z"/><path class="b" d="M179.225,17.543c.6.836-.758,2.883,3.281,2.883,1,0,.242-2.883.242-4.035a4.139,4.139,0,0,0-1.719-2.875c1.641-2.3,2.8-3.672,4.461-5.715l1.344-.191c.625-.243.758-.641.422-1.352l-5.078-1.434c-1.1,3.786-1.039,5.317-2.461,8-.883-1.066-1.719-.57-3.524-1.089l-.187.57C178.045,13.832,178.357,15.231,179.225,17.543Z"/><path class="b" d="M215.8,18.891c2.086-.57,2.359-3.418,3.273-3.164l.375-.567c-4.484-2.543-6.937-2.675-9.055-6.8a2.348,2.348,0,0,0,.524.066A1.354,1.354,0,0,0,212.2,6.731a1.684,1.684,0,0,0-1.57-1.434,2.505,2.505,0,0,0-1.977.961h-4.469V7.465h4.547C209.935,12,211.92,15.024,215.8,18.891Z"/><path class="b" d="M190.873,27.711c.25.379,1.125,1.387,1.508,1.387,1.008,0,.976-1.5.976-2.918,0-2.168-1.953-4.231-5.929-6.141l-.391.578a14.475,14.475,0,0,1,2.68,3.825c-2.68.261-4.422.468-7.352.574,3.07-3.313,5.227-6.965,8.531-11.582l1.133-.3c.891-.27,1.078-.7.563-1.348l-4.672-1.465a56.43,56.43,0,0,1-8.18,14.692l-4.625.211,1.188,3.832c.382.758,1.906,1.176,2.289.406l.531-1.324,3.625-1V47.856l3.727-.574v-20.7l3.632-.785A7.286,7.286,0,0,1,190.873,27.711Z"/><path class="b" d="M192.389,19.453c3.851-3.964,6.929-6.425,9.234-10.136l1.523-.2c.532-.25.532-.579,0-.965L198.3,6.055a41.694,41.694,0,0,1-6.477,12.836Z"/><path class="b" d="M212.685,42.016l-.578-3.906-.632.136-.813,4.43c-1.055.512-.406.637-1.8.637h-4.242a1,1,0,0,1-1.133-1.137l-.172-9.422,1.141-.406c.766-.375.648-.91-.133-1.43l-4.484-.261V43.75c0,2.047.984,3.074,2.906,3.074l8.828-.277c2.266,0,2.047-.363,2.188-2A2.721,2.721,0,0,0,212.685,42.016Z"/><path class="b" d="M190.24,39.184c1.164,0,2.445.148,2.555-2.453.109-2.434-1.485-4.606-4.406-6.524l-.579.395c1.4,2.031,1.344,4.879,1.477,7.426C189.412,38.809,189.717,39.184,190.24,39.184Z"/><path class="b" d="M213.764,33.094l-.094.2c.148,2.785,1.3,5.426,2.469,8.274.117.886,1.046.832,1.664.832,1.14,0,1.695-.473,1.695-2.254C219.5,37.465,218.475,36.043,213.764,33.094Z"/><path class="b" d="M204.685,27.946a13.836,13.836,0,0,1,3.68,5.257c.289.653.6.957,1,.957,1.141,0,1.719-.695,1.719-2.1,0-2.3-2.195-3.211-6.539-4.859Z"/><path class="b" d="M195.99,33.192c-.25,3.324-1.125,4.867-2.9,6.41a4.11,4.11,0,0,0-1.688,2.8,1.339,1.339,0,0,0,1.516,1.539,3.713,3.713,0,0,0,2.3-1.328c1.406-1.418,2.328-2.536,2.109-5.766a10.445,10.445,0,0,0-.57-3.652Z"/><path class="b" d="M213.131,26.946c.25.507.515.765.765.765,1.133,0,1.555-.6,1.719-1.73.445-3.125-1.2-5.117-6.445-7.668l-.555.578c1.4,1.148.8,1.9,1.938,3.555-3.563.265-6.164.293-10.024.558l4.922-7.187,1.149-.192c.656-.254.984-1.793-.641-1.98l-4.289-.766a28.106,28.106,0,0,1-2.977,10.051l-4.179.207,1.336,4.77c.39.765.96.652,1.156,0l.484-1.375,13.141-3.395Z"/><path class="b" d="M424.661,9.969a19.174,19.174,0,0,1-1.813,3.277l-.328-.218c.82-1.739,1.07-4.192,1.531-6.536l2.086.29c.305.14.055.859-.164,1.058l-.547.137a10.313,10.313,0,0,1-.523,1.461h2.351V5.465l1.4.16c.3.055.32.2.164.461l-.305.156v3.2h2.016l1.015-1.133,1.672,1.43-.023.507H428.6l.125,3.641,2.664-.019.984-1.149,1.516,1.371V14.4h-5.031a14.834,14.834,0,0,0,5.508,5.941l-.172.223c1.1.781-.594.84-.875,1.465-1.961-1.786-3.6-2.891-4.461-5.434l.055,7.859h-1.743l.086-8.922c-1,1.219-1.179,3.782-5.711,6.614l-.257-.3c2.4-2.125,3.695-5.059,5.195-7.445h-3.242l-.336-.539h4.351v-3.9Zm-4.93-4.184c.195.1.242.215.094.368l-.461.152V9.9h.828l.765-.918,1.391,1.133v.32h-2.984l.132,1.355c.977.25,1.719,1.477,2.079,2.243.187.371.453.621.453.98,0,.5-.219.758-.6.758-.305,0-.539-.235-.719-.688a3.18,3.18,0,0,0-1.343-1.761V24.188l-1.219.2V14.321a17.652,17.652,0,0,1-2.758,4.195l-.289-.234a27.908,27.908,0,0,0,2.977-7.848h-2.149l-.289-.535h2.508V5.625Z"/><path class="b" d="M454.676,6.633c.195.2.164.66.164.977,0,.461.055,1-.312,1-.289,0-.992.082-1.141-.278-.305-.711-.594-1.816-1.305-2.179l.157-.3a4.35,4.35,0,0,1,2.289,1m-6.18,7.73v.375h-4.086v5.52c1.555-.312,3.149-.648,4.719-.988l.094.316c-2.7.961-6.368,2.7-9.352,3.617l-.086.313c-.1.258-.273.23-.461-.078l-.633-2.106,4.485-.847V14.949h-3.664l-.3-.8h6.945l.516-1.075Zm2.523-9c.329.207.547,1.25-.195,1.079l-.305.156V9.774h3.211l1.071-1.289,1.836,1.453v.375l-5.93.187c0,4.625.758,7.723,2.695,9.657.492.5.93,1.425,1.274,1.687a8.136,8.136,0,0,0,.914-1.473l.828-1.351.219.07-.118,2.211c0,.648,0,1.074.493,1.223-.243.547.2,1.918-.3,1.918-.844,0-3.242-1.743-4.594-3.071-2.148-2.187-3.25-5.882-3.25-11.058h-9.672l-.328-.539h10V5.489Z"/><path class="b" d="M428.692,35.766v.367h-8.305l-.3-.535h6.352l.726-.914Zm4.062,3.5v.449H423.59l-2.429,4.356,7.406-.465a12.077,12.077,0,0,0-2.219-1.977l.133-.308a13.253,13.253,0,0,1,4.133,2.437,6.634,6.634,0,0,1,1.367,2.684c0,.507-.242.761-.735.761-.375,0-.679-.254-.929-.761A20.614,20.614,0,0,0,429,44.153L418.723,46.8l-.687.375c-.157.359-1.2-1.019-1.5-1.434l.109-.679,3.828-.91,1.359-4.438h-5.484l-.305-.531h14.11l.984-1.133ZM425.2,28.59c.492.313,1.054.789.421.895,1.961,2.691,5.344,3.672,8.852,4.992l-.055.222c-.687,0-.578,1.094-.882,1.657-.461-.207-4.883-.1-8.961-6.321a18.5,18.5,0,0,1-8.829,6.856l-.164-.3c3.008-1.305,5.1-3.988,7.657-8.047Z"/><path class="b" d="M451.692,29.442c.39.144.39.324,0,.531l-.508.226v5.567h2.289l.992-1.215,1.906,1.371V36.3h-5.187V46.305h2.9l1.086-1.289,1.813,1.371v.449H445.239l-.313-.531h5.047V36.3h-4.219l-.3-.531h4.516V29.215Zm-8.961-.078c.328.1.328.246,0,.453l-.524.3v2.754h1.586l.547-.765,1.594,1.062c.164.145.125.281-.063.387l-.835.148a34.9,34.9,0,0,1-2.829,3.727v.687a5.718,5.718,0,0,1,2.664,1.231c.344.359.524.637.524.824,0,.465-.227.707-.672.707-.211,0-.406-.168-.633-.543a3.9,3.9,0,0,0-1.883-1.738V46.68l-1.234.211V38.6a33.495,33.495,0,0,1-3.187,2.43l-.219-.309a27.189,27.189,0,0,0,6.015-7.316H438.1l-.312-.532h3.187V29.117Z"/><path class="b" d="M95.139,41.266h20.734V25.492H95.139Zm0-16.871h20.734V9.887H95.139Zm0-15.586h20.078l2.1-2.383L121.068,9c.953.641.414.883-.547,1.281l-.82.18V46.274l-3.851-.067.023-3.843-20.859-.016-2.118.734L91.076,46V6.41Z"/><path class="b" d="M95.139,42.332c-.493,3.254-.789,4.895-3.438,4.446-.93-.157-.594-3.231-.594-4.461a2.3,2.3,0,0,1,2.211-2.172A1.916,1.916,0,0,1,95.139,42.332Z"/><path class="b" d="M119.7,46c0,.563-.906,1.012-1.961,1.012s-1.89-.449-1.89-1,.843-.981,1.89-.981S119.7,45.457,119.7,46Z"/><path class="b" d="M291.106,5.168c5.75.742,8.4,2.219,8.4,4.926,0,1.324-.961,2.664-2.1,2.664a2.328,2.328,0,0,1-1.883-1.019c-1.43-3.1-1.758-3.922-4.578-5.7ZM311.629,15.93l.078.973H297.989V28.727h6.382l2.11-3.461,4.015,3.008.274,1.433H297.989V43.2h8.3l2.3-2.484,4.6,2.676v1.328l-32.039.066-.133-1.6,13.156.043V29.637L283.731,29.6l-.2-.7,10.578-.176V16.9H283.153l-.219-.973h22.781l1.86-3.285Zm-33.258,4.48-.085,26.137-3.805-.078-.024-23.133c-1.718,2.7-3.718,3.524-6.148,5.656l-.578-.535c5.359-7,9.164-14.418,10.39-23.476l4.954,1.429c.515.356.453.692-.2,1.055l-1.336.184c-.336,3.484-2.156,6.722-4.086,9.8l1.766.332c.4.36.344.723,0,1.34Z"/><path class="b" d="M278.286,46.336c0,.758-.883,1.348-1.915,1.348-1.093,0-1.945-.59-1.945-1.348s.852-1.344,1.945-1.344C277.4,44.992,278.286,45.586,278.286,46.336Z"/></svg>